# xmcd
#
# Track frame offsets: 
#        150
#        15291
#        35190
#        56141
#        70119
#        85678
#
# Disc length: 1362 seconds
#
# Revision: 0
# Processed by: cddbd v1.5.2PL0 Copyright (c) Steve Scherf et al.
# Submitted via: ExactAudioCopy v1.3
#
DISCID=45055006
DTITLE=Seth Yacovone Band - Thanks
DYEAR=2018
DGENRE=Blues Rock
TTITLE0=Thanksgiving
TTITLE1=$1000 Dog
TTITLE2=I Commit Crimes
TTITLE3=Much Difference
TTITLE4=Legal In New Zealand
TTITLE5=Thansgiving (Leftovers Remix)
EXTD=
EXTT0=
EXTT1=
EXTT2=
EXTT3=
EXTT4=
EXTT5=
PLAYORDER=
